<?xml version="1.0" encoding="UTF-8" standalone="no"?>
<!-- Created with Inkscape (http://www.inkscape.org/) -->

<svg
   width="210mm"
   height="297mm"
   viewBox="0 0 210 297"
   version="1.1"
   id="svg1"
   inkscape:version="1.3.2 (1:1.3.2+202311252150+091e20ef0f)"
   sodipodi:docname="render_preset_logo.svg"
   xml:space="preserve"
   xmlns:inkscape="http://www.inkscape.org/namespaces/inkscape"
   xmlns:sodipodi="http://sodipodi.sourceforge.net/DTD/sodipodi-0.dtd"
   xmlns="http://www.w3.org/2000/svg"
   xmlns:svg="http://www.w3.org/2000/svg"><sodipodi:namedview
     id="namedview1"
     pagecolor="#ffffff"
     bordercolor="#000000"
     borderopacity="0.25"
     inkscape:showpageshadow="2"
     inkscape:pageopacity="0.0"
     inkscape:pagecheckerboard="0"
     inkscape:deskcolor="#d1d1d1"
     inkscape:document-units="mm"
     inkscape:zoom="1"
     inkscape:cx="224.5"
     inkscape:cy="644.5"
     inkscape:window-width="1920"
     inkscape:window-height="1018"
     inkscape:window-x="0"
     inkscape:window-y="0"
     inkscape:window-maximized="1"
     inkscape:current-layer="layer1"
     showguides="true"
     inkscape:export-bgcolor="#ffffff00"><sodipodi:guide
       position="79.99662,182.43244"
       orientation="0,-1"
       id="guide1"
       inkscape:locked="false" /><sodipodi:guide
       position="47.364019,193.83446"
       orientation="0,-1"
       id="guide2"
       inkscape:locked="false" /><sodipodi:guide
       position="93.239585,90.326218"
       orientation="0,-1"
       id="guide4"
       inkscape:locked="false" /></sodipodi:namedview><defs
     id="defs1"><rect
       x="54.944406"
       y="577.22563"
       width="371.82216"
       height="267.89956"
       id="rect2" /><rect
       x="197.14554"
       y="275.45322"
       width="411.72809"
       height="280.98006"
       id="rect1" /><rect
       x="197.14554"
       y="275.45322"
       width="411.72809"
       height="280.98007"
       id="rect1-5" /><rect
       x="54.944405"
       y="577.22565"
       width="371.82217"
       height="267.89957"
       id="rect2-6" /><rect
       x="54.944405"
       y="577.22565"
       width="371.82217"
       height="267.89957"
       id="rect2-6-0" /><rect
       x="54.944405"
       y="577.22565"
       width="371.82217"
       height="267.89957"
       id="rect2-6-0-0" /></defs><g
     inkscape:label="Calque 1"
     inkscape:groupmode="layer"
     id="layer1"><text
       xml:space="preserve"
       transform="matrix(0.26458333,0,0,0.26458333,25.408984,93.073653)"
       id="text2-1-0-0"
       style="font-style:normal;font-variant:normal;font-weight:normal;font-stretch:normal;font-size:213.29px;line-height:0.8;font-family:'URW Gothic';-inkscape-font-specification:'URW Gothic';text-align:end;text-decoration-color:#000000;letter-spacing:0px;word-spacing:-0.177742px;white-space:pre;shape-inside:url(#rect2-6-0-0);display:inline;fill:#b44891;fill-opacity:1;stroke-width:7.55751;stroke-linecap:round;-inkscape-stroke:none;paint-order:stroke fill markers" /><rect
       style="opacity:1;fill:#5b003d;fill-opacity:1;stroke:#5b003d;stroke-width:2.714;stroke-linecap:round;stroke-linejoin:round;stroke-miterlimit:4;stroke-dasharray:none;stroke-dashoffset:0;stroke-opacity:1;paint-order:stroke fill markers"
       id="rect6"
       width="31.233574"
       height="31.233574"
       x="89.431885"
       y="144.43858"
       ry="3.4161952"
       inkscape:export-filename="renderpreset_logo.png"
       inkscape:export-xdpi="191.53999"
       inkscape:export-ydpi="191.53999" /><path
       fill="#ffffff"
       d="m 104.21987,146.77486 a 0.47804789,0.47804789 0 0 0 -0.3386,0.13951 l -1.77164,1.77258 h -2.670356 a 0.47804789,0.47804789 0 0 0 -0.478047,0.47808 v 7.64874 a 0.47804789,0.47804789 0 0 0 0.478047,0.47805 h 6.173486 a 0.41590165,0.41590165 0 0 0 0.0478,-0.003 0.59182325,0.59182325 0 0 0 0.0422,0.003 h 5.20975 a 0.47804789,0.47804789 0 0 0 0.47805,-0.47805 v -7.64874 a 0.47804789,0.47804789 0 0 0 -0.47805,-0.47808 h -1.71428 l -1.77164,-1.77258 a 0.47804789,0.47804789 0 0 0 -0.33859,-0.13951 z m 1.43221,1.91026 a 3.8186463,3.8186463 0 0 1 3.82632,3.82631 3.8186463,3.8186463 0 0 1 -3.78136,3.82438 0.41590165,0.41590165 0 0 0 -0.0383,0.003 l -0.0422,-0.003 h -0.003 a 3.8186463,3.8186463 0 0 1 -3.78615,-3.82438 3.8186463,3.8186463 0 0 1 3.82441,-3.82631 z m 0,0.95803 a 2.8740238,2.8740238 0 0 0 -2.86637,2.86828 c 0,1.57756 1.28788,2.8683 2.86637,2.8683 1.57758,0 2.86828,-1.29074 2.86828,-2.8683 0,-1.57758 -1.2907,-2.86828 -2.86828,-2.86828 z m 0,0.95609 c 1.06127,0 1.9122,0.85092 1.9122,1.91219 0,1.06124 -0.85093,1.91218 -1.9122,1.91218 -1.06125,0 -1.91025,-0.85094 -1.91025,-1.91218 0,-1.06127 0.849,-1.91219 1.91025,-1.91219 z"
       id="path1-3"
       style="fill:#f3b3c2;fill-opacity:1;stroke-width:0.956095" /><text
       xml:space="preserve"
       transform="matrix(0.13714424,0,0,0.13714424,58.831258,81.874382)"
       id="text2-1-0"
       style="font-style:normal;font-variant:normal;font-weight:bold;font-stretch:condensed;font-size:51.4462px;line-height:0.8;font-family:'TeX Gyre Heros Cn';-inkscape-font-specification:'TeX Gyre Heros Cn, Bold Condensed';font-variant-ligatures:normal;font-variant-caps:normal;font-variant-numeric:normal;font-variant-east-asian:normal;text-align:end;text-decoration-color:#000000;letter-spacing:0px;word-spacing:-0.177742px;white-space:pre;shape-inside:url(#rect2-6-0);display:inline;fill:#f3b3c2;fill-opacity:1;stroke-width:7.55751;stroke-linecap:round;-inkscape-stroke:none;paint-order:stroke fill markers"><tspan
         x="248.65918"
         y="612.87878"
         id="tspan3"><tspan
           dx="0 0 0 0 0 0 0.1777401"
           id="tspan1">RENDER
</tspan></tspan></text><text
       xml:space="preserve"
       style="font-style:normal;font-variant:normal;font-weight:bold;font-stretch:condensed;font-size:7.05556px;line-height:0.8;font-family:'TeX Gyre Heros Cn';-inkscape-font-specification:'TeX Gyre Heros Cn, Bold Condensed';font-variant-ligatures:normal;font-variant-position:normal;font-variant-caps:normal;font-variant-numeric:normal;font-variant-alternates:normal;font-variant-east-asian:normal;text-indent:0;text-align:end;text-decoration-line:none;text-decoration-style:solid;text-decoration-color:#000000;letter-spacing:0.219604px;word-spacing:-0.0343055px;text-transform:none;writing-mode:lr-tb;direction:ltr;text-orientation:mixed;dominant-baseline:auto;baseline-shift:baseline;text-anchor:end;white-space:normal;opacity:1;vector-effect:none;fill:#f3b3c2;fill-opacity:1;stroke-width:1.45865;stroke-linecap:round;stroke-linejoin:miter;stroke-miterlimit:4;stroke-dasharray:none;stroke-dashoffset:0;stroke-opacity:1;-inkscape-stroke:none;paint-order:stroke fill markers"
       x="117.17663"
       y="172.12897"
       id="text6"><tspan
         sodipodi:role="line"
         id="tspan6"
         style="font-style:normal;font-variant:normal;font-weight:bold;font-stretch:condensed;font-size:7.05556px;font-family:'TeX Gyre Heros Cn';-inkscape-font-specification:'TeX Gyre Heros Cn, Bold Condensed';font-variant-ligatures:normal;font-variant-caps:normal;font-variant-numeric:normal;font-variant-east-asian:normal;letter-spacing:0.219604px;fill:#f3b3c2;fill-opacity:1;stroke-width:1.45865"
         x="117.39623"
         y="172.12897">PRESET</tspan></text></g></svg>
